<?xml version="1.0" encoding="utf-8"?>
<!-- Generator: Adobe Illustrator 24.1.1, SVG Export Plug-In . SVG Version: 6.00 Build 0)  -->
<svg version="1.1" id="Layer_1" xmlns="http://www.w3.org/2000/svg" xmlns:xlink="http://www.w3.org/1999/xlink" x="0px" y="0px"
	 viewBox="0 0 169.1 115.7" style="enable-background:new 0 0 169.1 115.7;" xml:space="preserve">
<style type="text/css">
	.st0{opacity:0.7;fill:#E5E5E5;enable-background:new    ;}
	.st1{opacity:0.36;fill:#BFBEBE;}
	.st2{fill:#F7F7F7;}
	.st3{fill:none;}
</style>
<g>
	<polygon class="st0" points="101.8,27 41,36.4 67.1,52.5 101.3,46.8 	"/>
	<path class="st1" d="M77.4,66.2c-0.1,0-0.3-0.1-0.4-0.2l-9.6-11.9v47.7l62.2-9.6l-1-35.2L77.4,66.2L77.4,66.2z"/>
	<path class="st1" d="M57.3,63.5c-0.1,0-0.2,0-0.2-0.1L40.2,53v32.7l26.4,15.9V53.9l-8.9,9.5C57.6,63.4,57.5,63.5,57.3,63.5z"/>
	<polygon class="st1" points="66.2,52.9 39.8,36.8 30.7,46.2 40.4,52.2 40.8,52.5 57.3,62.5 66.4,53 	"/>
	<polygon class="st1" points="101.5,26.2 91.7,15.1 31.2,25 40,35.8 	"/>
	<polygon class="st2" points="127.2,42.5 102.6,27.3 102.1,46.7 	"/>
	<path class="st1" d="M129,43.9l-0.4-0.4l0,0l-0.4,0.1L101.7,48c0,0,0,0-0.1,0s-0.2,0-0.3-0.1l-33.6,5.5l9.8,12.1l51-9.2l0.4-0.1
		l0.4-0.1l9.2-1.6L129,43.9z"/>
	<polygon class="st3" points="40.8,52.5 57.3,62.5 66.4,53 66.2,52.9 39.8,36.8 30.7,46.2 40.4,52.2 	"/>
	<polygon class="st3" points="101.8,27 41,36.4 67.1,52.5 101.3,46.8 	"/>
	<path class="st3" d="M57.3,63.5c-0.1,0-0.2,0-0.2-0.1L40.2,53v32.7l26.4,15.9V53.9l-8.9,9.5C57.6,63.4,57.5,63.5,57.3,63.5z"/>
	<polygon class="st3" points="101.5,26.2 91.7,15.1 31.2,25 40,35.8 	"/>
	<path class="st1" d="M128.5,42.3L128.5,42.3c0.1,0,0.2,0,0.2,0l10-8.9l-26.5-16l-9.3,9l6,3.8L128.5,42.3z"/>
	<polygon class="st3" points="102.6,27.3 102.1,46.7 127.2,42.5 	"/>
	<path class="st3" d="M77.5,66.2C77.4,66.2,77.4,66.2,77.5,66.2c-0.2,0-0.4-0.1-0.4-0.2l-9.7-11.9v47.7l62.2-9.6l-1-35.2L77.5,66.2z
		"/>
</g>
</svg>
